<svg id="Layer_1" data-name="Layer 1" xmlns="http://www.w3.org/2000/svg" viewBox="0 0 224 86"><defs><style>.cls-1{fill:#231f20;}</style></defs><title>224x86</title><path class="cls-1" d="M28.57,25.4H40.64c7.66,0,12.6,6.18,12.6,14.65,0,4.66-1.57,8.75-4.58,11.28a12.81,12.81,0,0,1-8.5,2.76H28.57ZM39.76,49.08c5.45,0,7.58-3.33,7.58-9s-2.49-9.67-7.42-9.67H34.39v18.7Z"/><path class="cls-1" d="M54.11,43.82a10.75,10.75,0,1,1,21.5,0c0,6.14-4.37,10.88-10.75,10.88S54.11,50,54.11,43.82Zm16,0c0-4-1.89-6.74-5.22-6.74s-5.22,2.73-5.22,6.74,1.85,6.7,5.22,6.7S70.08,47.84,70.08,43.82Z"/><path class="cls-1" d="M76.74,43.82C76.74,37.68,80.75,33,87,33c5.33,0,8.63,3.09,9.35,7.54H91a3.77,3.77,0,0,0-3.77-3.17c-3.29,0-5,2.53-5,6.5s1.57,6.5,4.9,6.5a3.83,3.83,0,0,0,4.13-3.49h5.26c-.36,4.38-3.77,7.87-9.27,7.87C80.79,54.7,76.74,50,76.74,43.82Z"/><path class="cls-1" d="M111,54.09v-2.4h-.12a6.63,6.63,0,0,1-5.9,3c-4.58,0-7.15-2.93-7.15-7.43V33.51h5.42v12.8c0,2.41,1.09,3.73,3.41,3.73,2.57,0,4.14-1.92,4.14-4.65V33.51h5.45V54.09Z"/><path class="cls-1" d="M142.83,25.53h5.45v5.1h-5.45Zm0,8h5.45V54.09h-5.45Z"/><path class="cls-1" d="M150.55,54.7H156c.44,1.28,1.6,2.28,4.13,2.28,3.09,0,4.57-1.48,4.57-4.29V50.44h-.12a6.61,6.61,0,0,1-5.37,2.41c-4.58,0-9.07-3.61-9.07-9.83S153.8,33,159,33a6.62,6.62,0,0,1,5.69,2.73h.08V33.51h5.26v19a8,8,0,0,1-2.45,6.26c-1.72,1.6-4.37,2.33-7.42,2.33C154.56,61.12,151.11,58.71,150.55,54.7ZM165,42.9c0-3-1.61-5.58-4.9-5.58-2.77,0-4.61,2.17-4.61,5.62s1.84,5.54,4.65,5.54C163.55,48.48,165,46,165,42.9Z"/><path class="cls-1" d="M177.72,36.32h.12a6.7,6.7,0,0,1,6.1-3.37c4.26,0,7.11,3.21,7.11,7.7V54.09h-5.46V41.46c0-2.21-1.28-3.78-3.57-3.78s-4.18,1.93-4.18,4.74V54.09h-5.45V33.51h5.33Z"/><path class="cls-1" d="M130.39,36.8c-4.25-.92-6.26-1.6-6.26-3.93,0-2,2.05-3.37,5.18-3.37,2.86,0,5,1.34,5.49,4h5.59c-.57-5.57-4.7-8.63-11-8.63s-11,2.93-11,8.59c0,6,4.7,7.34,9.84,8.51,4.37,1,7.1,1.56,7.1,4.37,0,2.65-2.61,3.69-5.58,3.69-4.09,0-6.06-1.36-6.46-4.81h-5.7c.2,6.06,4.62,9.51,12.4,9.51,6.46,0,11.16-3.25,11.16-9.07C141.11,39.49,136.29,38.08,130.39,36.8Z"/><path class="cls-1" d="M193.26,37.31a2.17,2.17,0,1,1,2.17-2.17A2.17,2.17,0,0,1,193.26,37.31Zm0-4a1.83,1.83,0,1,0,1.83,1.83A1.83,1.83,0,0,0,193.26,33.31Z"/><path class="cls-1" d="M192.52,34h.7a1,1,0,0,1,.69.16.67.67,0,0,1,.25.54.61.61,0,0,1-.44.61l.49.9h-.47l-.44-.82h-.37v.82h-.41Zm.41.35v.7h.42a.34.34,0,0,0,.38-.34.32.32,0,0,0-.17-.3,1.1,1.1,0,0,0-.44,0Z"/></svg>